name C:\Users\r0593348\3dpredictsim\Results\batch_windlass\Pog_s1_tmt_bCst_d05_k1500_WL20_ig24.mot
datacolumns 128
datarows 4
range 1.04171431 1.07296574
endheader
time	pelvis_tilt	pelvis_list	pelvis_rotation	pelvis_tx	pelvis_ty	pelvis_tz	hip_flexion_l	hip_adduction_l	hip_rotation_l	hip_flexion_r	hip_adduction_r	hip_rotation_r	knee_angle_l	knee_angle_r	ankle_angle_l	ankle_angle_r	subtalar_angle_l	subtalar_angle_r	tmt_angle_l	tmt_angle_r	mtp_angle_l	mtp_angle_r	lumbar_extension	lumbar_bending	lumbar_rotation	arm_flex_l	arm_add_l	arm_rot_l	arm_flex_r	arm_add_r	arm_rot_r	elbow_flex_l	elbow_flex_r	pro_sup_l	pro_sup_r	glut_med1_l/activation	glut_med2_l/activation	glut_med3_l/activation	glut_min1_l/activation	glut_min2_l/activation	glut_min3_l/activation	semimem_l/activation	semiten_l/activation	bifemlh_l/activation	bifemsh_l/activation	sar_l/activation	add_long_l/activation	add_brev_l/activation	add_mag1_l/activation	add_mag2_l/activation	add_mag3_l/activation	tfl_l/activation	pect_l/activation	grac_l/activation	glut_max1_l/activation	glut_max2_l/activation	glut_max3_l/activation	iliacus_l/activation	psoas_l/activation	quad_fem_l/activation	gem_l/activation	peri_l/activation	rect_fem_l/activation	vas_med_l/activation	vas_int_l/activation	vas_lat_l/activation	med_gas_l/activation	lat_gas_l/activation	soleus_l/activation	tib_post_l/activation	flex_dig_l/activation	flex_hal_l/activation	tib_ant_l/activation	per_brev_l/activation	per_long_l/activation	per_tert_l/activation	ext_dig_l/activation	ext_hal_l/activation	ercspn_l/activation	intobl_l/activation	extobl_l/activation	glut_med1_r/activation	glut_med2_r/activation	glut_med3_r/activation	glut_min1_r/activation	glut_min2_r/activation	glut_min3_r/activation	semimem_r/activation	semiten_r/activation	bifemlh_r/activation	bifemsh_r/activation	sar_r/activation	add_long_r/activation	add_brev_r/activation	add_mag1_r/activation	add_mag2_r/activation	add_mag3_r/activation	tfl_r/activation	pect_r/activation	grac_r/activation	glut_max1_r/activation	glut_max2_r/activation	glut_max3_r/activation	iliacus_r/activation	psoas_r/activation	quad_fem_r/activation	gem_r/activation	peri_r/activation	rect_fem_r/activation	vas_med_r/activation	vas_int_r/activation	vas_lat_r/activation	med_gas_r/activation	lat_gas_r/activation	soleus_r/activation	tib_post_r/activation	flex_dig_r/activation	flex_hal_r/activation	tib_ant_r/activation	per_brev_r/activation	per_long_r/activation	per_tert_r/activation	ext_dig_r/activation	ext_hal_r/activation	ercspn_r/activation	intobl_r/activation	extobl_r/activation	
          1.04171431	         -2.92085761	         -1.28581410	          5.35999516	          1.30214288	          0.85940872	         -0.00127444	        -17.75822213	         -1.18108559	          8.02963336	         31.16929804	          2.20505216	         -2.44456466	         -9.42776337	        -18.98744522	         -0.49516457	         -0.72662155	         12.38428684	          0.17985659	         -5.57266303	         -0.15952543	         27.04835710	          0.75255624	         -1.08225289	         -0.34666996	         -1.67587518	          4.41908147	        -13.46941288	         14.97294430	         -8.39923575	        -13.60491118	          7.35459361	         32.91090409	         18.12368887	         86.51662706	         86.51662706	          0.28880774	          0.08703523	          0.05000206	          0.30434339	          0.19342486	          0.08852235	          0.05000487	          0.05000080	          0.05000051	          0.06886851	          0.08465976	          0.12589153	          0.06007253	          0.05000372	          0.05000982	          0.05000387	          0.27037321	          0.05690807	          0.05000170	          0.05000595	          0.05000457	          0.05000412	          0.26995046	          0.50114811	          0.05000041	          0.05000092	          0.05000017	          0.16378747	          0.09817753	          0.08261039	          0.07444455	          0.27378639	          0.34796760	          0.22945066	          0.19724270	          0.19645749	          0.25899697	          0.05000003	          0.09890271	          0.15840648	          0.05000035	          0.05000007	          0.05000025	          0.05000004	          0.05000065	          0.05000025	          0.05000361	          0.05000125	          0.05001596	          0.05000144	          0.05000143	          0.05000319	          0.05868105	          0.05868103	          0.07700431	          0.05000423	          0.05000281	          0.11132436	          0.14709703	          0.15095479	          0.15794819	          0.11170518	          0.05000199	          0.05866642	          0.05868494	          0.05000328	          0.06275795	          0.12277411	          0.05868148	          0.05655790	          0.26455806	          0.05743449	          0.05000229	          0.05000027	          0.13520382	          0.13912561	          0.11680936	          0.05868108	          0.05868114	          0.05868096	          0.05000005	          0.05000300	          0.05000975	          0.43203542	          0.24389019	          0.14665620	          0.30160534	          0.57949425	          0.05000021	          0.05000051	          0.10857781	          0.11178301	
          1.05213145	         -2.90867832	         -1.39969449	          5.61843041	          1.31800052	          0.85836833	         -0.00108740	        -17.44907032	         -1.46981093	          7.80700326	         30.56321503	          2.61816119	         -2.19458804	        -11.54859001	        -18.97778234	         -1.40164719	         -1.09412623	         13.32829015	         -0.46425742	         -5.89266813	         -0.19141574	         27.83013222	          0.90564323	         -0.88307267	         -0.08693166	         -1.73550392	          4.17376148	        -13.49700999	         15.29792451	         -9.32746072	        -13.60756644	          7.13831926	         33.81041569	         17.99558640	         86.51662706	         86.51662706	          0.24608318	          0.07415974	          0.05000040	          0.25932082	          0.16481074	          0.07542693	          0.05001853	          0.05000128	          0.05000240	          0.05868061	          0.07213618	          0.20572011	          0.17049583	          0.11017308	          0.05000866	          0.12983083	          0.23037639	          0.09401974	          0.05000496	          0.05000273	          0.05000166	          0.05000147	          0.23001551	          0.43998243	          0.05000042	          0.05000911	          0.05868104	          0.13955783	          0.08365469	          0.15334148	          0.15333975	          0.23328387	          0.29649112	          0.19550694	          0.16806375	          0.16739503	          0.22068255	          0.06104682	          0.08427167	          0.13497273	          0.05000031	          0.07554470	          0.05000117	          0.05000011	          0.06887035	          0.05781145	          0.05000016	          0.05000060	          0.08162234	          0.05000030	          0.05000052	          0.05000069	          0.05000019	          0.05000046	          0.06561278	          0.05000055	          0.05335720	          0.09485629	          0.12533674	          0.33683009	          0.24583439	          0.09898880	          0.05000086	          0.05000476	          0.05000439	          0.05868020	          0.05868162	          0.12831809	          0.05000114	          0.06886761	          0.49597480	          0.09483276	          0.06209496	          0.06886914	          0.24716491	          0.24004919	          0.20698880	          0.05000012	          0.05000019	          0.05000001	          0.05000284	          0.05868118	          0.05000094	          0.56592229	          0.20781043	          0.12496070	          0.45301694	          0.60177155	          0.08872514	          0.05000004	          0.09251539	          0.09524644	
          1.06254859	         -2.89256252	         -1.52272585	          5.85386462	          1.33408046	          0.85717973	         -0.00092237	        -17.06580980	         -1.75239507	          7.56728521	         29.78079875	          2.99020049	         -1.86344509	        -13.81157980	        -19.37933856	         -2.36888580	         -1.19672890	         14.19825435	         -1.16003024	         -6.13588038	         -0.30790180	         28.18042919	          1.03330488	         -0.66726043	          0.18947353	         -1.78446727	          3.86413302	        -13.53148179	         15.56982208	        -10.25304053	        -13.62001646	          6.98950847	         34.70791023	         17.85574912	         86.51662706	         86.51662706	          0.32235661	          0.06318899	          0.05000032	          0.22095886	          0.14042967	          0.06426876	          0.05000519	          0.05000099	          0.05000093	          0.05000024	          0.06146520	          0.18782382	          0.31008991	          0.09387607	          0.05868492	          0.11062685	          0.26100427	          0.08011580	          0.05000438	          0.05003601	          0.05022319	          0.05867885	          0.19598837	          0.41211328	          0.05000335	          0.05000156	          0.05000023	          0.11891243	          0.08658231	          0.13065740	          0.13065578	          0.19877309	          0.25262980	          0.16658467	          0.14320134	          0.14263175	          0.18803611	          0.16637657	          0.14857370	          0.15670212	          0.15811822	          0.20359865	          0.16042752	          0.07089196	          0.05868204	          0.05868126	          0.30799835	          0.30529409	          0.37941483	          0.06730085	          0.05000147	          0.36155086	          0.08739815	          0.05000144	          0.09557461	          0.05000018	          0.05000076	          0.08082560	          0.22855662	          0.28700163	          0.20948559	          0.14755592	          0.05000075	          0.06887055	          0.11179025	          0.05000032	          0.05000075	          0.13449357	          0.05867885	          0.05867990	          0.42260297	          0.08080398	          0.21273090	          0.05868103	          0.23429082	          0.24093426	          0.20474979	          0.05868082	          0.05868065	          0.05868095	          0.05000019	          0.05000138	          0.05002168	          0.53056572	          0.17706815	          0.10647473	          0.38600061	          0.58272562	          0.07559966	          0.05000006	          0.08278240	          0.08115619	
          1.07296574	         -2.87513499	         -1.65041301	          6.06065072	          1.35015764	          0.85591836	         -0.00075648	        -16.57212052	         -2.01962564	          7.32305543	         28.84957631	          3.34120289	         -1.52639910	        -16.26809595	        -19.71824499	         -3.30574866	         -1.09844579	         14.97398127	         -1.89289993	         -6.17354653	         -0.40352016	         27.71901205	          1.23073771	         -0.45529458	          0.47379363	         -1.82271777	          3.52874525	        -13.57200095	         15.80250117	        -11.12237983	        -13.63830707	          6.93104970	         35.57657830	         17.66950963	         86.51662706	         86.51662706	          0.27466901	          0.05384122	          0.05000007	          0.18827298	          0.11965545	          0.05476134	          0.05001342	          0.05000071	          0.05000069	          0.05000060	          0.05239326	          0.22310054	          0.26421730	          0.07998904	          0.05000468	          0.09426270	          0.27403217	          0.06826638	          0.05000078	          0.05000147	          0.05000090	          0.05000062	          0.16699502	          0.37266405	          0.05000009	          0.05000064	          0.05000042	          0.10132153	          0.07377407	          0.11132889	          0.11132749	          0.16936765	          0.21525711	          0.14194102	          0.12201704	          0.12153195	          0.16021944	          0.20967091	          0.12950107	          0.13352092	          0.27547060	          0.23859048	          0.13669637	          0.11153812	          0.05000094	          0.05000031	          0.39788192	          0.45217818	          0.50429500	          0.25871099	          0.33837036	          0.32883903	          0.07446921	          0.10688335	          0.08143693	          0.06887009	          0.05000159	          0.06886877	          0.19474523	          0.24454456	          0.19484822	          0.16357744	          0.05000055	          0.05868285	          0.09525703	          0.27334690	          0.20138183	          0.16413931	          0.05000015	          0.05000017	          0.36008543	          0.06885125	          0.18126459	          0.05000011	          0.29924157	          0.31413587	          0.26531077	          0.05000005	          0.05000011	          0.05000001	          0.10589691	          0.05000161	          0.05000044	          0.62124019	          0.15087367	          0.09072346	          0.38103312	          0.56212406	          0.33195724	          0.06627782	          0.07053607	          0.06915038	
